<?xml version="1.0" encoding="UTF-8" standalone="no"?>
<svg viewBox="0 0 152.4655 37.866932" xmlns="http://www.w3.org/2000/svg">
<g transform="translate(-255.19582,-410.57157)">
<path d="m271.44632,410.63407c0,10.3571-16.019,17.29983-16.188,25.78111 0,4.65297 3.6576,8.42415 8.1681,8.42415 3.3919,0 6.2997-2.13294 7.5339-5.16949-1.9944,8.79377-9.7438,8.70613-9.7438,8.70613h20.4167c0,0-7.7123-.0486-9.7296-8.69507 1.2368,3.03068 4.1426,5.15843 7.5303,5.15843 4.5106,0 8.1663-3.77118 8.1663-8.42415 .01-8.81828-16.1539-15.42476-16.1539-25.78111z" stroke="#008484" stroke-linecap="round" stroke-linejoin="round" stroke-width=".05807"/>
<path d="m375.25982,419.93005c0-5.1337 3.6572-9.29452 8.1674-9.29452 3.9514,0 7.247,3.19414 8.003,7.43806 .756-4.24374 4.0516-7.43806 8.003-7.43806 4.5102,0 8.1656,4.16082 8.1656,9.29452 .01,9.72938-16.1528,17.01813-16.1528,28.44449 0-11.42719-16.0173-19.08693-16.1862-28.44449z" fill="#a31919" stroke="#008484" stroke-linecap="round" stroke-linejoin="round" stroke-width=".06099"/>
<path d="m351.31582,410.63448c-4.5104,0-8.1679,3.87572-8.1679,8.65532 0,3.55259 2.0215,6.60486 4.9111,7.93782 1.2068,1.27086 2.2688,3.06567 2.8709,5.59983-1.2517-3.07722-4.1401-5.23067-7.5033-5.23067-4.5104,0-8.1679,3.87571-8.1679,8.65532s3.6575,8.65342 8.1679,8.65342c3.3728,0 6.2682-2.16586 7.5141-5.25718-2.0691,8.81595-9.6954,8.72726-9.6954,8.72726h20.4162c0,0-7.3995-.0484-9.5989-8.39596 1.3144,2.9133 4.1205,4.92588 7.3711,4.92588 4.5105,0 8.1662-3.87382 8.1662-8.65342s-3.6557-8.65532-8.1662-8.65532c-3.2373,0-6.0338,1.99591-7.355,4.88991 .7033-2.63176 1.9236-4.4349 3.2639-5.66798 .0007-.00061 0-.001 0-.002 2.4705-1.48783 4.1376-4.30025 4.1376-7.52702 0-4.7796-3.6557-8.65532-8.1662-8.65532z" stroke="#008484" stroke-linecap="round" stroke-linejoin="round" stroke-width=".05885"/>
<path d="m311.42932,448.37411c0,0-4.6103-7.17093-7.3173-10.3299s-8.8518-8.53917-8.8518-8.53917 6.1448-5.38019 8.8518-8.53917 7.3173-10.3299 7.3173-10.3299 4.6103,7.17093 7.3173,10.3299 8.8518,8.53917 8.8518,8.53917-6.1449,5.38019-8.8518,8.53917-7.3173,10.3299-7.3173,10.3299z" fill="#a31919" stroke="#008484" stroke-linecap="round" stroke-linejoin="round" stroke-width=".06185"/>
</g>
</svg>
